# xmcd
#
# Track frame offsets: 
#        180
#        16284
#        30778
#        44825
#        57608
#        71410
#        83170
#        95373
#        106851
#        121149
#        136697
#        149645
#        160931
#        172825
#        189638
#        203736
#        217648
#        231289
#
# Disc length: 3271 seconds
#
# Revision: 0
# Processed by: cddbd v1.5.2PL0 Copyright (c) Steve Scherf et al.
# Submitted via: ExactAudioCopyFreeDBPlugin 1.0
#
DISCID=ed0cc512
DTITLE=Various Artist - The Voices Of The Great Divas
DYEAR=2005
DGENRE=Jazz
TTITLE0=Billie Holiday - P. S. I Love You
TTITLE1=Rosemary Clooney - Tomorrow I'll Dream And Remember
TTITLE2=Peggy Lee - Crazy He Calls Me
TTITLE3=Andrews Sisters - Beat Me Daddy, Eight To The Bar
TTITLE4=Peggy Lee - Happiness Is A Thing Called Joe
TTITLE5=Anita O'Day - Are You Livin' Old Man?
TTITLE6=Helen Humes - Jet Propelled Papa
TTITLE7=Peggy Lee - But Beautiful
TTITLE8=Doris Day - Sooner Or Later
TTITLE9=Edith Piaf - Browning
TTITLE10=Ella Fitzgerald - (I Put) A Four Leaf Clover In Your Pocket
TTITLE11=Judy Garland - For Me And My Gal
TTITLE12=Andrews Sisters - Money Is The Root Of All Evil
TTITLE13=Edith Piaf - Regarde Moi Toujours Comme Ca
TTITLE14=Ella Fitzgerald - Louisville. Kv-Y
TTITLE15=Sarah Vaughan - East Of The Sun (West Of The Moon)
TTITLE16=Ella Fitzgerald - My Wubba Dolly (Rubber Dolly)
TTITLE17=Judy Garland - Poor Little Rich Girl
EXTD=
EXTT0=
EXTT1=
EXTT2=
EXTT3=
EXTT4=
EXTT5=
EXTT6=
EXTT7=
EXTT8=
EXTT9=
EXTT10=
EXTT11=
EXTT12=
EXTT13=
EXTT14=
EXTT15=
EXTT16=
EXTT17=
PLAYORDER=
